<svg width="120" height="42" viewBox="0 0 120 42" fill="none" xmlns="http://www.w3.org/2000/svg">
<g clip-path="url(#clip0_10_375)">
<path fill-rule="evenodd" clip-rule="evenodd" d="M55.225 30.0727C60.5447 30.0727 63.5316 26.1784 63.5316 21.2923C63.5316 16.4056 60.5447 12.5389 55.225 12.5389V16.3013C58.0546 16.3013 59.1289 18.81 59.1289 21.2923C59.1289 23.801 58.0546 26.2833 55.225 26.2833V30.0727ZM46.8919 21.2923C46.8919 26.1784 49.9059 30.0727 55.225 30.0727V26.2833C52.3689 26.2833 51.2947 23.801 51.2947 21.2923C51.2947 18.81 52.3689 16.3013 55.225 16.3013V12.5389C49.9059 12.5389 46.8919 16.4056 46.8919 21.2923ZM70.6325 24.5321C71.3923 24.3764 72.2313 24.2715 72.7031 23.9838C72.781 26.3354 72.2314 27.4334 70.6325 27.5634V29.8108C71.4452 29.5765 72.1785 29.1576 72.781 28.5564C72.8075 28.9484 72.8597 29.341 73.0176 29.7065H77.053C76.5806 28.7386 76.5806 27.6162 76.5806 26.5703V21.2138C76.5806 17.7648 73.7516 17.1109 70.8684 17.1109C70.7898 17.1109 70.7111 17.1109 70.6325 17.1373V19.7252C70.6847 19.7252 70.7369 19.7252 70.8162 19.7252C71.6282 19.7252 72.7553 20.0644 72.7553 20.9789C72.7553 21.7364 72.3622 21.9719 71.681 22.1283C71.3395 22.1804 70.9992 22.2332 70.6325 22.2854V24.5321ZM68.5626 26.2048C68.5626 25.2381 69.3224 24.8455 70.2123 24.637C70.3445 24.6106 70.5017 24.5836 70.6325 24.5321V22.2854C67.9337 22.6773 64.553 22.8607 64.553 26.3612C64.553 28.8969 66.3877 30.0727 68.7192 30.0727C69.3746 30.0727 70.0042 29.9935 70.6325 29.8108V27.5634C70.5017 27.5905 70.3703 27.5905 70.2394 27.5905C69.3482 27.5905 68.5626 27.1972 68.5626 26.2048ZM70.6325 17.1373V19.7252C69.6105 19.7767 68.9815 20.2735 68.7978 21.2408H65.0518C65.1034 19.646 65.8638 18.6008 66.9645 17.9733C67.9859 17.3993 69.3224 17.1373 70.6325 17.1373ZM78.8341 29.7065H82.8695V23.0429C82.8695 21.6843 83.5242 20.4299 85.0444 20.4299C87.2194 20.4299 87.0364 22.1283 87.0364 23.801V29.7065H91.0718V21.867C91.0718 20.0907 90.7309 17.1109 86.6426 17.1109C85.1759 17.1109 83.5242 17.8955 82.7915 19.1498H82.7387V17.4771H78.8341V29.7065ZM99.2205 20.1943C100.95 20.1943 101.605 21.8142 101.605 23.5912C101.605 25.1339 101.16 26.9887 99.2205 26.9887C99.1941 26.9887 99.1941 26.9887 99.1683 26.9887V29.9678C100.164 29.7587 101.002 29.1833 101.605 28.2951H101.631V29.7065H105.483V12.5389H101.474L101.448 18.81H101.395C100.819 18.0255 100.085 17.5029 99.1684 17.268V20.1943C99.1942 20.1943 99.1941 20.1943 99.2205 20.1943ZM99.1683 26.9887C97.3601 26.963 96.7569 25.1339 96.7569 23.4612C96.7569 21.9191 97.3601 20.2214 99.1684 20.1943V17.268C98.7753 17.1637 98.3557 17.1109 97.9098 17.1109C94.426 17.1109 92.7222 20.1422 92.7222 23.3305C92.7222 26.7531 94.3732 30.0727 98.2249 30.0727C98.5394 30.0727 98.8796 30.02 99.1683 29.9678V26.9887ZM113.527 20.1943C115.388 20.1943 115.965 22.0498 115.965 23.6176C115.965 25.1596 115.388 26.9887 113.527 26.9887V30.0727C117.327 30.0457 120 27.2764 120 23.6176C120 19.933 117.327 17.1373 113.527 17.1109V20.1943ZM111.091 23.6176C111.091 22.0498 111.64 20.1943 113.527 20.1943V17.1109C109.728 17.1109 107.082 19.933 107.082 23.6176C107.082 27.2764 109.728 30.0727 113.527 30.0727V26.9887C111.64 26.9887 111.091 25.1596 111.091 23.6176Z" fill="white"/>
<path fill-rule="evenodd" clip-rule="evenodd" d="M18.5325 0.771423C30.1947 0.771423 37.0637 8.33446 37.0637 20.9644C37.0637 33.6649 30.1947 41.2286 18.5325 41.2286C6.86966 41.2286 -3.05176e-05 33.6649 -3.05176e-05 20.9644C-3.05176e-05 8.33446 6.86966 0.771423 18.5325 0.771423Z" fill="#F5D400"/>
<path fill-rule="evenodd" clip-rule="evenodd" d="M18.5325 38.9449C8.58678 38.9449 4.5798 30.2397 4.5798 20.9644C4.5798 11.6884 8.58678 2.98318 18.5325 2.98318C28.4777 2.98318 32.4846 11.6884 32.4846 20.9644C32.4846 30.2397 28.4777 38.9449 18.5325 38.9449Z" fill="#F2B300"/>
<path fill-rule="evenodd" clip-rule="evenodd" d="M26.045 13.4719C30.9823 18.3956 33.6296 25.2454 28.1916 30.6686C22.7536 36.0198 15.8845 33.3798 11.0194 28.5274C6.08215 23.6044 3.43485 16.7546 8.87285 11.3314C14.2388 5.90891 21.1799 8.5489 26.045 13.4719Z" fill="#E86E18"/>
<path fill-rule="evenodd" clip-rule="evenodd" d="M13.2372 15.7556C16.8148 12.1879 21.6086 10.4756 25.3295 14.1852C29.1218 17.8961 27.3327 22.6766 23.8272 26.2444C20.2496 29.7408 15.4557 31.5244 11.7348 27.8141C7.94258 24.0319 9.7317 19.2514 13.2372 15.7556Z" fill="#D30021"/>
<path fill-rule="evenodd" clip-rule="evenodd" d="M18.5325 25.8161C15.4558 25.8161 12.379 24.4608 12.379 20.9644C12.379 17.5392 15.4558 16.1832 18.5325 16.1832C21.6086 16.1832 24.6854 17.5392 24.6854 20.9644C24.6854 24.4608 21.6086 25.8161 18.5325 25.8161Z" fill="#371071"/>
</g>
<defs>
<clipPath id="clip0_10_375">
<rect width="120" height="40.4571" fill="white" transform="translate(0 0.771423)"/>
</clipPath>
</defs>
</svg>
